Patient4_TMGait_0pt3_03_right_27_EMG.mot
version=1
nRows=33
nColumns=33
inDegrees=no
endheader
time	1LAddLong	2LGlutMax	3LGlutMed	4LIliopsoas	5LSemiMemb	6LBicFemLong	7LRecFem	8LVastMed	9LVastLat	10LGasMed	11LTibAnt	12lTibPost	13LPeroneusLong	14LSol	15LExtDigLong	16LFlexDigLong	17RAddLong	18RGlutMax	19RGlutMed	20RIliopsoas	21RSemiMemb	22RBicFemLong	23RRecFem	24RVastMed	25RVastLat	26RGasMed	27RTibAnt	28RTibPost	29RPeroneusLong	30RSol	31RExtDigLong	32RFlexDigLong
52.415	0.00946	-0.041046	0.07431	0.023651	0.077209	-0.048065	0.1294	0.003662	0.15656	-0.12085	-0.010071	-0.062714	0.056152	0.07431	-0.0177	0.015717	0.1178	-0.084686	0.24109	-0.10254	0.013885	-0.051727	0.061493	-0.12177	-0.000763	0.006409	-0.38544	-0.015106	0.12695	-0.04776	0.005035	0.007629
52.416	0.018158	-0.036621	0.12741	0.024872	0.038757	0.095367	0.12497	-0.006561	-0.044708	-0.16632	0.003662	-0.041809	0.19409	0.1683	0.004883	0.015717	0.055237	-0.040436	0.1149	0.060272	0.004578	-0.015259	0.024109	-0.084991	0.013428	0.000458	-0.39566	-0.008087	0.085907	0.01297	0.001984	-0.006409
52.417	0.02533	-0.058136	0.051575	0.025177	0.028229	0.05249	0.09903	-0.020142	-0.16327	-0.10315	0.019379	-0.030365	-0.18463	0.17929	0.022583	0.005341	0.027618	-0.046082	0.1033	0.30426	0.011749	0.001984	0.044708	-0.084381	0.007629	-0.012054	-0.17273	-0.00946	-0.045166	-0.003204	0.004578	0.003204
52.418	0.028992	-0.059662	0.052338	0.011444	-0.006866	-0.11398	0.057526	-0.00885	-0.16602	-0.06073	-0.008545	-0.018768	0.12344	0.079041	-0.007477	0.006866	-0.031891	-0.084381	-0.036774	0.34698	0.017853	-0.004272	0.019836	-0.091858	0.007629	-0.00351	0.12604	-0.012054	-0.067596	0.004578	0.004883	-0.006714
52.419	0.017548	-0.096283	0.004272	0.013885	-0.006409	-0.086365	0.04715	-0.019836	-0.097046	-0.056152	0.014343	0.003815	0.051422	0.057678	-0.020294	-0.001831	-0.056763	-0.059967	-0.089417	0.21973	0.006561	0.007019	-0.00061	-0.084686	0.018005	-0.007629	0.096741	-0.012512	-0.072174	-0.009766	0.002136	-0.002747
52.42	0.012054	-0.17197	-0.12695	0.024261	0.010681	-0.053101	-0.014038	-0.013428	-0.047455	0.006256	0.019836	0.018463	-0.074463	0.11475	-0.012054	0.001984	-0.067902	-0.029602	-0.093384	0.15274	0.002441	0.011444	0.017395	-0.10132	0.021057	-0.006256	0.066986	-0.010529	-0.073395	-0.027924	0.004578	-0.006409
52.421	0.005493	-0.17349	-0.092316	-0.002289	0.019531	-0.080719	-0.05722	0.004425	0.049133	0.19272	0.012054	0.017548	0.18707	0.23834	0.068054	-0.010681	-0.0354	-0.0177	-0.12466	0.014954	0.02594	0.014648	-0.031281	-0.067902	0.028687	-0.008545	0.20142	-0.003204	-0.041809	-0.04425	0.003357	-0.00473
52.422	0.007782	-0.14526	-0.16953	-0.003357	0.034485	-0.058746	-0.07843	-0.010681	0.11002	0.28153	0.006866	0.000305	0.21591	0.18204	0.083618	-0.007019	0.000763	0.049744	0.17593	-0.1062	0.00885	0.024567	-0.027313	-0.061188	0.018005	-0.009003	0.29953	-0.009613	-0.083313	-0.070801	0.003204	-0.001526
52.423	0.000763	-0.078278	-0.097656	-0.010681	0.031891	-0.045776	-0.005951	-0.004578	0.045776	0.25528	-0.005035	0.018158	0.54886	0.072327	0.045013	0.001678	0.008392	0.088654	0.28336	-0.17822	0.01709	0.010986	-0.023041	-0.045013	0.0354	-0.009003	0.3093	-0.010834	-0.1062	-0.096893	0.007935	-0.001831
52.424	-0.001831	-0.091858	-0.10391	-0.033417	0.01358	0.012665	0.002136	-0.01236	-0.012512	0.16419	-0.020447	0.008698	0.14282	0.058136	0.049591	-0.017548	0.046844	0.040588	-0.077667	-0.11948	0.006409	0.00885	-0.056458	-0.053864	0.011444	-0.002747	0.22415	-0.002899	-0.016174	-0.17166	0.005188	-0.003967
52.425	-0.00351	-0.082092	-0.12695	0.014496	-0.00824	0.091858	0.053101	-0.01236	-0.006104	0.09903	-0.000763	-0.008698	0.17548	0.077972	0.024414	-0.033569	0.054321	0.037537	-0.089722	-0.068665	-0.002441	0.014648	-0.053711	-0.085754	0.020905	0.002899	0.089722	-0.007935	0.069733	-0.19134	0.005798	0.002747
52.426	-0.006866	-0.053253	-0.13794	0.017853	-0.011902	0.12863	0.078278	0.005341	0.004883	0.02243	-0.002747	0.076904	-0.81222	0.16037	-0.011139	-0.060425	0.03418	-0.019989	-0.21942	0.012512	0.005493	0.003204	-0.013123	-0.061951	0.000916	-0.002289	-0.31006	-0.007782	0.007019	-0.17212	0.002136	-0.003662
52.427	0.001526	-0.022125	0.021667	0.016632	-0.001678	0.13809	0.078735	-0.009766	0.014648	0.072174	0.018005	0.010071	-0.76141	0.045929	-0.11597	-0.031281	-0.021515	0.036926	0.23071	0.12772	0.007324	0.010986	0.027466	-0.035858	0.001984	-0.012054	-0.48782	-0.009003	-0.083923	-0.13641	0.005188	-0.011139
52.428	0.005188	-0.073395	-0.019226	0.012054	0.031281	0.12299	0.058746	-0.00473	-0.00061	0.079956	0.015106	0.05249	-0.055237	-0.21668	-0.11215	0.13367	-0.072021	0.06958	-0.083313	0.10254	-0.000305	0.002899	0.035095	-0.055389	0.014954	-0.011292	-0.74936	-0.003204	-0.15762	-0.088043	0.006256	-0.009003
52.429	0.011902	-0.063019	-0.19073	0.014038	0.025635	0.072479	0.095367	0.003052	-0.010376	0.13733	0.005035	0.019531	-0.012207	-0.18112	-0.009613	0.10407	-0.11002	0.033875	-0.16007	0.040436	0.012207	0.010834	-0.001831	-0.00473	0.023956	-0.00351	-0.55023	-0.001068	-0.06424	-0.057678	0.003662	-0.008545
52.43	0.000305	-0.075531	-0.23483	0.016479	0.024414	-0.046387	0.077209	-0.005951	-0.024414	0.11047	0.005188	-0.075684	0.044403	0.013275	0.024567	0.041199	-0.10483	0.052795	-0.031433	-0.031738	0.013885	0.014801	0.023193	-0.035248	0.030823	0.006714	-0.19486	-0.003357	0.095215	0.006256	0.007782	-0.010681
52.431	0.006256	-0.063324	0.053101	0.018616	0.001831	-0.41443	0.08728	0.005646	-0.03067	0.10422	0.004425	-0.029755	0.20508	0.20599	-0.011292	-0.02655	-0.084839	0.002136	-0.065918	-0.048676	0.001373	0.021057	0.031281	-0.044098	0.014343	0	0.159	-0.001831	0.044708	0.071716	0.003662	-0.001831
52.432	0.010834	-0.084534	0.34302	0.012207	-0.019989	-0.41473	0.10437	-0.002289	-0.018616	0.007629	-0.015411	0.000305	0.16129	0.21744	0.012512	-0.031128	-0.069733	-0.003815	0.06546	-0.056458	0.006866	0.019836	0.039978	-0.032654	0.016479	-0.013123	0.043335	-0.006409	-0.014954	0.074768	0.001831	-0.00824
52.433	0.006409	-0.14236	0.11505	0.007019	-0.010376	-0.2066	0.00946	0.012054	0.010681	-0.13473	-0.00885	0.000153	0.15289	0.084686	-0.010834	-0.051727	-0.063324	-0.067139	0.10208	-0.011597	-0.001373	0.037537	0.06012	-0.055847	0.025482	-0.010834	-0.039673	-0.002747	-0.005341	0.001984	0.003815	-0.006561
52.434	0.007477	-0.177	-0.025177	-0.003052	0.02655	-0.047302	-0.070953	0.038452	0.074768	-0.070496	-0.001068	0.00351	0.12512	-0.018463	-0.025024	-0.010071	-0.056763	-0.025177	-0.13565	-0.015106	0.023041	0.029907	0.07309	-0.053253	0.018005	-0.003357	0.12695	0.00061	-0.036774	-0.11231	0.00351	-0.006256
52.435	0.007324	-0.12955	-0.008698	-0.024109	0.036469	0.080414	-0.058289	0.049286	0.080261	0.004272	0.000916	0.015717	-0.025635	-0.1178	-0.06546	0.055695	-0.043945	-0.023346	-0.27191	-0.019379	0.040436	0.051575	0.024567	-0.063171	0.012207	-0.011139	0.048065	-0.000153	-0.09964	-0.17166	0.001221	-0.011292
52.436	-0.010834	-0.14542	0.008545	0.006409	0.008087	0.17548	-0.058746	0.042725	0.14038	-0.033264	0.006714	0.027161	0.020752	0.002899	0.040588	0.02243	-0.029449	0.001678	-0.35477	0.016174	0.028687	0.074005	0.022888	-0.014038	0.029297	-0.007324	-0.10025	-0.007782	-0.075073	-0.17319	0.00351	-0.005646
52.437	-0.007019	-0.17624	-0.087128	0.000305	-0.043182	0.18341	-0.044403	0.029907	0.2214	-0.001373	0.010071	0.024872	-0.053101	-0.031433	0.030365	-0.019073	-0.038147	0.077362	-0.32623	0.051575	-0.029755	0.075836	0.005646	0.001373	0.036316	0.003052	0.14923	-0.004578	0.035706	-0.15747	0.004272	0.001984
52.438	-0.007629	-0.23697	0.025024	-0.011292	-0.077972	0.065308	-0.042114	0.002441	0.20172	0.013275	0.007172	0.042114	-0.034637	-0.077515	0.014801	-0.0177	-0.023499	0.027008	0.168	0.00351	-0.033569	0.073395	-0.009766	-0.025177	0.030975	0.008698	0.62027	-0.004578	0.072632	-0.04776	0.002899	0.002747
52.439	-0.007019	-0.23773	0.047302	0.007172	-0.043793	0.039063	-0.027771	-0.013123	0.21622	0.000916	0.00412	0.032196	-0.018005	-0.027924	0.005188	-0.02182	0.002441	-0.009308	0.61691	0.057068	-0.014191	0.071259	-0.006256	-0.019531	0.036469	0.003052	0.49835	-0.001831	0.005493	-0.023193	0	0.00061
52.44	0.001678	-0.20218	0.15488	0.01236	0.015869	0.03067	0.018005	-0.023041	0.20401	-0.007477	0.007477	0.015259	-0.011597	0.007477	-0.005188	-0.006256	0.051117	-0.011749	0.35904	0.06134	0.00946	0.071259	-0.042419	-0.034637	0.054169	-0.008087	0.5249	-0.005646	-0.067139	0.063934	0.002899	-0.006561
52.441	0.001678	-0.13626	0.19211	0.027771	0.01709	-0.16083	0.032196	-0.024567	0.23041	-0.004578	0.013885	0.01709	-0.036469	-0.049286	-0.018311	0.005798	0.053864	-0.001984	-0.034485	0.020294	0.009308	0.039673	-0.039673	-0.015411	0.02655	-0.011902	0.52017	-0.012665	-0.12238	0.19608	0.002136	-0.00061
52.442	0.012512	-0.14191	0.088959	0.00061	0.030365	-0.080109	0.020599	-0.030823	0.12436	-0.02121	0.006714	0.021362	0.018463	-0.072937	-0.007172	-0.005341	0.063171	0.03418	-0.21668	-0.001984	0.012054	0.003204	-0.023956	-0.069275	0.024872	-0.011444	0.42633	0.001373	-0.10422	0.13809	0.00824	-0.002441
52.443	0.005646	-0.16708	-0.035553	-0.013123	-0.024109	-0.078583	0.058899	-0.043182	-0.25909	-0.031128	0.003662	0.023956	0.019531	0.061798	0.019989	-0.010834	0.049133	0.071411	-0.21225	-0.038147	0.010376	-0.001831	0.001221	-0.059052	-0.001068	-0.003967	0.42099	-0.005035	-0.089417	0.063477	0.002441	-0.015259
52.444	-0.005188	-0.15427	-0.14282	-0.004272	-0.063782	-0.045319	0.13382	-0.015259	-0.49011	-0.024872	0.003662	0.026093	0.013123	0.10193	-0.002747	-0.007019	0.033264	0.03067	-0.23773	-0.04364	0.009308	-0.016174	-0.001831	-0.063324	-0.000153	-0.003815	-0.069427	-0.005188	-0.037079	0.056763	0.006104	-0.013123
52.445	-0.005493	-0.13534	-0.27618	0.005646	-0.075684	-0.02655	0.089417	-0.020294	-0.3801	-0.020142	0.012817	0.037384	0.039825	0.058136	-0.026855	-0.000305	0.023804	0.037537	-0.23865	0.017242	-0.020752	0.000458	-0.003967	-0.041809	0.016022	-0.007935	0.22812	-0.005188	-0.03891	-0.013733	0.002136	-0.014038
52.446	-0.017853	-0.088501	-0.31479	0.01358	0.037537	-0.076599	0.034332	-0.004272	-0.16968	-0.003357	0.010376	0.035706	-0.17716	-0.081787	-0.012207	0.001373	0.010529	0.042114	-0.056763	-0.007782	-0.037842	0.00885	0.01297	-0.046539	-0.000305	0.004578	-0.1297	-0.005798	0.087738	-0.11688	0.003204	-0.010223
52.447	-0.013428	-0.038757	-0.23239	0.007019	0.089417	-0.097198	0.017548	-0.009613	-0.049286	-0.020752	0.035553	0.033112	0.12665	-0.005646	0.035706	-0.005798	-0.01297	0.014954	-0.10223	-0.058136	-0.038147	0.002136	-0.038147	-0.000458	0.007019	0.007782	0.00351	-0.005341	0.17151	-0.21332	0.005646	-0.003052
